<svg xmlns="http://www.w3.org/2000/svg" xmlns:xlink="http://www.w3.org/1999/xlink" viewBox="0 0 1778.5 1221.88"><defs><style>.cls-1{fill:none;clip-rule:evenodd;}.cls-2{clip-path:url(#clip-path);}.cls-3{fill:url(#linear-gradient);}.cls-4{fill:#fff;}</style><clipPath id="clip-path"><path class="cls-1" d="M736.91,396.12,863,323.32q0-84.92,0-169.82l70.51,40.71v145.6l68.22,39.4,78.84,45.52-70.51,40.7L884,392.63,736.9,477.53ZM933.52,59l116.87,67.47,0,112.55a38.08,38.08,0,1,0,46.34,0V99.7L933.52,5.49ZM1127.17,533l-116.86,67.48-97.46-56.3a38.08,38.08,0,1,0-23.17,40.13L1010.32,654l163.18-94.21ZM619.8,463.73V328.79l97.49-56.26a38.08,38.08,0,1,0-23.17-40.12L573.47,302.06V490.48Zm5.79-273.17L816.68,80.24V296.58L690.34,369.52l.24,30.1V504.28l-86.62,50L864.07,704.45a38.08,38.08,0,1,0,21.24-41.22l-96.1-55.48-92.59-53.47L884,446.12l126.33,72.94,116.6-67.59,3.28,1.9,83.33,48.11V196.77a38.08,38.08,0,1,0-46.32,0V421.24l-125.91-72.7-61.45-35.48V167.19l-26.18-14.85L863,100V0L604.56,149.22a38.07,38.07,0,1,0,21,41.34Z"/></clipPath><linearGradient id="linear-gradient" x1="716.07" y1="688.17" x2="1064.01" y2="39.98" gradientUnits="userSpaceOnUse"><stop offset="0" stop-color="#af0bd4"/><stop offset="1" stop-color="#14dcff"/></linearGradient></defs><g id="Layer_2" data-name="Layer 2"><g id="Layer_1-2" data-name="Layer 1"><g class="cls-2"><rect class="cls-3" x="544.66" width="683.78" height="741.17"/></g><path class="cls-4" d="M131.31,988.85c0,20.41-7.94,28.12-26.75,28.12H20V947h88.18c16.43,0,23.13,6.51,23.13,24.64ZM95.48,861.62c18.81,0,26.75,7.71,26.75,28.21V905.3c0,17.11-6.15,23-21.61,23H20V861.62Zm31.29,73.64c10.14-5.1,15.46-15.24,15.46-30V889.83c0-30.41-16.38-46.84-46.75-46.84H0V1035.6H104.56c30.37,0,46.75-16.43,46.75-46.75V971.6C151.31,952,142.83,939.43,126.77,935.26Z"/><polygon class="cls-4" points="216.83 1016.97 216.83 842.95 196.83 842.95 196.83 1035.6 205.5 1035.6 322.95 1035.6 322.95 1016.97 216.83 1016.97"/><path class="cls-4" d="M409.62,1019.72c-24.32,0-35.06-10.69-35.06-36.42v-88c0-25.79,10.74-36.43,35.06-36.43h52.49c24.31,0,35.05,10.64,35.05,36.43v88c0,25.73-10.74,36.42-35.05,36.42Zm0,18.63h52.49c35.78,0,55-19.32,55-55v-88c0-35.75-19.27-55.06-55-55.06H409.62c-35.79,0-55.06,19.31-55.06,55.06v88C354.56,1019,373.83,1038.35,409.62,1038.35Z"/><path class="cls-4" d="M616.63,1038.35h80.84v-18.63H616.63c-24.31,0-35-10.69-35-36.42v-88c0-25.79,10.74-36.43,35-36.43h80.84V840.24H616.63c-35.79,0-55.06,19.31-55.06,55.06v88c0,35.73,19.27,55,55.06,55"/><polygon class="cls-4" points="871.68 1035.64 897.79 1035.6 811.81 937.92 893.89 842.99 868.61 842.95 794.78 928.61 762.71 928.61 762.71 842.95 742.71 842.95 742.71 1035.64 762.71 1035.64 762.71 947.23 794.69 947.23 871.68 1035.64"/><path class="cls-4" d="M981,1038.35h86.76v-34H983.86c-16,0-21-4.68-21-23.95V898.28c0-19.32,5-24,21-24h83.91v-34H981c-35.37,0-54.41,19.27-54.41,55v88c0,35.78,19,55,54.41,55"/><polygon class="cls-4" points="1234.64 842.95 1234.64 920.9 1140.95 920.9 1140.95 842.95 1104.71 842.95 1104.71 1035.64 1140.95 1035.64 1140.95 954.94 1234.64 954.94 1234.64 1035.64 1270.88 1035.64 1270.88 842.95 1234.64 842.95"/><path class="cls-4" d="M1365.77,958.89,1392.88,877h9.91l27.12,81.86Zm89.51,76.75h38.86L1427.66,843H1368l-66.48,192.65h38.86l14.13-42.71h86.63Z"/><rect class="cls-4" x="1524.79" y="842.95" width="36.24" height="192.7"/><polygon class="cls-4" points="1742.26 842.99 1742.26 1001.55 1736.48 1001.55 1671.56 842.99 1658.94 842.99 1634.81 842.99 1606.82 842.99 1606.82 1035.6 1643.06 1035.6 1643.06 877.03 1648.71 877.03 1713.63 1035.6 1724.69 1035.6 1750.38 1035.6 1778.5 1035.6 1778.5 842.99 1742.26 842.99"/><path class="cls-4" d="M1455.28,1116.84l-16.5,0-31.21,55.48-31.2-55.48-16.53,0,40.19,71.47v32.11h15.09v-32.06Zm-149,43.93v14.07h20.38v17.41c0,11.74-3.93,15.62-14.46,15.62h-26c-10.53,0-14.46-3.88-14.46-15.62v-47.33c0-11.7,3.93-15.52,14.46-15.52h48.1v-14.06h-48.1c-19.22,0-29.55,10.36-29.55,29.58v47.33c0,19.27,10.33,29.63,29.55,29.63h26c19.21,0,29.55-10.36,29.55-29.63v-31.48Zm-142.64,47.1c-10.53,0-14.46-3.88-14.46-15.57v-47.36c0-11.69,3.93-15.54,14.46-15.54h29.55c10.53,0,14.46,3.85,14.46,15.54v47.36c0,11.69-3.93,15.57-14.46,15.57Zm0,14h29.55c19.22,0,29.56-10.36,29.56-29.58v-47.36c0-19.24-10.34-29.6-29.56-29.6h-29.55c-19.21,0-29.55,10.36-29.55,29.6v47.36C1134,1211.52,1144.38,1221.88,1163.59,1221.88Zm-113.48-15.49v-89.57H1035V1220.4h70v-14Zm-110.62,1.48C929,1207.87,925,1204,925,1192.3v-47.36c0-11.69,3.92-15.54,14.45-15.54H969c10.54,0,14.46,3.85,14.46,15.54v47.36c0,11.69-3.92,15.57-14.46,15.57Zm0,14H969c19.22,0,29.56-10.36,29.56-29.58v-47.36c0-19.24-10.34-29.6-29.56-29.6H939.49c-19.21,0-29.55,10.36-29.55,29.6v47.36C909.94,1211.52,920.28,1221.88,939.49,1221.88Zm-83.88-105.06v89.57h-4.78l-40-89.57H782.5V1220.4h15.09v-89.52h4.52l40.06,89.52h28.54V1116.82Zm-128.33,0v44H671v-44h-15.1v103.6H671v-45.58h56.24v45.58h15.1v-103.6ZM576.11,1221.88h44.6v-14h-44.6c-10.53,0-14.46-3.88-14.46-15.57v-47.36c0-11.69,3.93-15.54,14.46-15.54h44.6v-14.06h-44.6c-19.22,0-29.55,10.36-29.55,29.6v47.36C546.56,1211.52,556.89,1221.88,576.11,1221.88Zm-61.73-91v-14.06H441.17V1220.4h73.21v-14H456.27v-31.55h52.32v-14.07H456.27v-29.89Zm-104.77-14.06H323.22v14.06h35.65v89.54H374v-89.54h35.65Z"/></g></g></svg>